M48
;Layer_Color=9474304
;FILE_FORMAT=4:3
METRIC,LZ
;TYPE=PLATED
T01F00S00C0.600
T02F00S00C1.000
T03F00S00C1.499
T05F00S00C2.400
;TYPE=NON_PLATED
T06F00S00C1.702
T07F00S00C3.988
%
T01
X0008Y0063
Y0083
X0022Y0101
X002Y0107
X0019Y0108
X0022Y0109
X0024899Y0108899
X0025Y0115
X0024Y0116
X0022
X0018
X0017Y0112
X0015
X0017Y011
X0027Y0115
X0032Y0122
X0038Y0104
X0012Y0107
X0011Y0108
X0012Y0101
Y0115
X0009Y0116
X0007
Y0114
T02
X00545Y010475
Y011925
X00695
X0072
X00745
Y010475
X00695
X00495
Y011925
X0052
T03
X000819Y001454
X002819
X004819
X006819
X007454Y001708
Y003708
X006819Y003454
X005454Y003708
Y001708
X003454
Y003708
X002819Y003454
X004819
X001454Y003708
X000819Y003454
X001454Y001708
Y005708
X000819Y005454
Y007454
X001454Y007708
X002819Y007454
X003454Y007708
X004819Y007454
Y005454
X003454Y005708
X002819Y005454
X005454Y005708
X006819Y005454
X007454Y005708
Y007708
X006819Y007454
X005454Y007708
Y009708
X006819Y009454
X007454Y009708
X004819Y009454
X003454Y009708
X002819Y009454
X001454Y009708
X000819Y009454
T05
X00025Y00025
X00815
Y01215
X0042
T06
X000692Y0012
X001708
X002692
X003708
X004692
X005708
X006692
X007708
Y0032
X006692
X005708
Y0052
X006692
X007708
X004692
X003708
X002692
X001708
Y0032
X002692
X003708
X004692
X000692
Y0052
Y0072
Y0092
X001708
X002692
X003708
X004692
Y0072
X003708
X002692
X001708
X005708
X006692
X007708
Y0092
X006692
X005708
T07
X0012Y0012
X0032
X0052
X0072
Y0032
Y0052
X0052
X0032
Y0032
X0052
X0012
Y0052
Y0072
Y0092
X0032
X0052
Y0072
X0032
X0072
Y0092
M30
