G04*
G04 #@! TF.GenerationSoftware,Altium Limited,Altium Designer,25.3.2 (17)*
G04*
G04 Layer_Physical_Order=1*
G04 Layer_Color=255*
%FSLAX43Y43*%
%MOMM*%
G71*
G04*
G04 #@! TF.SameCoordinates,9A78E016-BF11-4ED0-8CD3-159F53B44DCF*
G04*
G04*
G04 #@! TF.FilePolarity,Positive*
G04*
G01*
G75*
%ADD11C,0.200*%
%ADD13R,0.830X0.630*%
%ADD20C,3.000*%
%ADD21C,2.000*%
%ADD22R,2.000X2.000*%
G04:AMPARAMS|DCode=23|XSize=3.9mm|YSize=2.7mm|CornerRadius=0.675mm|HoleSize=0mm|Usage=FLASHONLY|Rotation=90.000|XOffset=0mm|YOffset=0mm|HoleType=Round|Shape=RoundedRectangle|*
%AMROUNDEDRECTD23*
21,1,3.900,1.350,0,0,90.0*
21,1,2.550,2.700,0,0,90.0*
1,1,1.350,0.675,1.275*
1,1,1.350,0.675,-1.275*
1,1,1.350,-0.675,-1.275*
1,1,1.350,-0.675,1.275*
%
%ADD23ROUNDEDRECTD23*%
%ADD24C,1.500*%
%ADD25C,1.000*%
D11*
X39850Y105850D02*
X69956D01*
X38000Y104000D02*
X39850Y105850D01*
X19000Y108000D02*
X47000D01*
X22000Y109000D02*
X23000D01*
X17000Y110000D02*
X22000D01*
X27000Y115000D01*
X23000Y109000D02*
X30000Y116000D01*
X31000Y115000D02*
X49306D01*
X47000Y108000D02*
X58250Y119250D01*
X24899Y108899D02*
X31000Y115000D01*
X30000Y116000D02*
X46250D01*
X69956Y105850D02*
X71056Y104750D01*
X20000Y107000D02*
X55300D01*
X65300Y117000D01*
X2500Y32515D02*
Y109500D01*
Y32515D02*
X11900Y23115D01*
X2500Y109500D02*
X7000Y114000D01*
X3500Y101500D02*
X10000Y108000D01*
X3500Y53722D02*
X11685Y45537D01*
X3500Y53722D02*
Y101500D01*
X12000Y115000D02*
X19000Y122000D01*
X32000D01*
X15000Y112000D02*
Y113000D01*
X16577Y114577D01*
X27920Y97080D02*
X34540D01*
X9000Y116000D02*
X27920Y97080D01*
X17000Y112000D02*
X18000Y111000D01*
X21000D01*
X22577Y114577D02*
X24000Y116000D01*
X16577Y114577D02*
X22577D01*
X8000Y83000D02*
X11885D01*
X12000Y83115D01*
X8190Y74540D02*
Y77075D01*
X11685Y80570D01*
X8386Y94344D02*
X16434D01*
X8190Y94540D02*
X8386Y94344D01*
X21000Y111000D02*
X25000Y115000D01*
X8000Y63000D02*
X8115Y63115D01*
X12000D01*
X10000Y108000D02*
X11000D01*
X11685Y43330D02*
Y45537D01*
Y43330D02*
X11900Y43115D01*
X12000D01*
X49306Y115000D02*
X53450Y119144D01*
X46250Y116000D02*
X49500Y119250D01*
X18000Y116000D02*
X22000D01*
X12000Y101000D02*
Y107000D01*
X7000Y116000D02*
X14540Y108460D01*
Y97080D02*
Y108460D01*
X11900Y23115D02*
X32000D01*
X58250Y119250D02*
X69500D01*
X16434Y94344D02*
X17663Y93115D01*
X12000Y43115D02*
X32000D01*
X52000D01*
X12000Y63115D02*
X12115Y63000D01*
X32000D01*
X22000Y93115D02*
Y101000D01*
Y93115D02*
X24000D01*
X27459Y89656D01*
X21115Y90885D02*
X22000D01*
X18885Y93115D02*
X21115Y90885D01*
X27459Y89656D02*
X36434D01*
X52115Y103230D02*
X72000D01*
X71056Y104750D02*
X74500D01*
X65300Y117000D02*
X72250D01*
X74500Y119250D01*
X44000Y98000D02*
X49115Y103115D01*
X52000D01*
X53450Y119144D02*
X54394D01*
X54500Y119250D01*
X44000Y92000D02*
Y98000D01*
X42000Y91000D02*
X43000D01*
X44000Y92000D01*
X37778Y91000D02*
X42000D01*
X52000Y103115D02*
X52115Y103230D01*
X68190Y94540D02*
Y97190D01*
X71685Y100685D01*
Y100785D01*
X71900Y101000D01*
X72000D01*
X48190Y94540D02*
Y97075D01*
X51685Y100570D01*
Y100670D01*
X51900Y100885D01*
X52000D01*
X28190Y94540D02*
X28386Y94344D01*
X34831D01*
X35944Y93230D01*
X42000D01*
X36434Y89656D02*
X37778Y91000D01*
X17663Y93115D02*
X18885D01*
X68190Y74540D02*
Y77075D01*
X71685Y80570D01*
Y80670D01*
X71900Y80885D01*
X72000D01*
X52000Y83115D02*
X72000D01*
X48190Y74540D02*
Y77075D01*
X51685Y80570D01*
Y80670D01*
X51900Y80885D01*
X52000D01*
X32000Y83115D02*
X52000D01*
X12000D02*
X32000D01*
X28190Y74540D02*
Y77075D01*
X31685Y80570D01*
Y80670D01*
X31900Y80885D01*
X32000D01*
X11685Y80570D02*
Y80670D01*
X11900Y80885D01*
X12000D01*
X52000Y63115D02*
X72000D01*
X68190Y54540D02*
Y57075D01*
X71685Y60570D01*
Y60670D01*
X71900Y60885D01*
X72000D01*
X32000Y63000D02*
X32115Y63115D01*
X52000D01*
X48190Y54540D02*
Y57075D01*
X51685Y60570D01*
Y60670D01*
X51900Y60885D01*
X52000D01*
X28190Y54540D02*
Y56960D01*
X31685Y60455D01*
Y60555D01*
X31900Y60770D01*
X32000D01*
X8190Y54540D02*
Y57075D01*
X11685Y60570D01*
Y60670D01*
X11900Y60885D01*
X12000D01*
X68190Y34540D02*
Y37075D01*
X71685Y40570D01*
Y40670D01*
X71900Y40885D01*
X72000D01*
X52000Y43115D02*
X72000D01*
X48190Y34540D02*
Y37075D01*
X51685Y40570D01*
Y40670D01*
X51900Y40885D01*
X52000D01*
X28190Y34540D02*
Y37075D01*
X31685Y40570D01*
Y40670D01*
X31900Y40885D01*
X32000D01*
X8190Y34540D02*
Y37075D01*
X11685Y40570D01*
Y40670D01*
X11900Y40885D01*
X12000D01*
X68190Y14540D02*
Y17075D01*
X71685Y20570D01*
Y20670D01*
X71900Y20885D01*
X72000D01*
X52000Y23115D02*
X72000D01*
X48190Y14540D02*
Y17075D01*
X51685Y20570D01*
Y20670D01*
X51900Y20885D01*
X52000D01*
X32000Y23115D02*
X52000D01*
X28190Y14540D02*
Y17075D01*
X31685Y20570D01*
Y20670D01*
X31900Y20885D01*
X32000D01*
X8190Y14540D02*
Y17075D01*
X11685Y20570D01*
Y20670D01*
X11900Y20885D01*
X12000D01*
D13*
X22000Y93115D02*
D03*
Y90885D02*
D03*
X42000Y91000D02*
D03*
Y93230D02*
D03*
X72000Y103115D02*
D03*
Y100885D02*
D03*
X52000Y103115D02*
D03*
Y100885D02*
D03*
X72000Y20885D02*
D03*
Y23115D02*
D03*
X52000Y20885D02*
D03*
Y23115D02*
D03*
X32000Y20885D02*
D03*
Y23115D02*
D03*
X12000Y20885D02*
D03*
Y23115D02*
D03*
X72000Y40885D02*
D03*
Y43115D02*
D03*
X52000Y40885D02*
D03*
Y43115D02*
D03*
X32000Y40885D02*
D03*
Y43115D02*
D03*
X12000Y40885D02*
D03*
Y43115D02*
D03*
X72000Y60885D02*
D03*
Y63115D02*
D03*
X52000Y60885D02*
D03*
Y63115D02*
D03*
X32000Y60770D02*
D03*
Y63000D02*
D03*
X12000Y60885D02*
D03*
Y63115D02*
D03*
X72000Y80885D02*
D03*
Y83115D02*
D03*
X52000Y80885D02*
D03*
Y83115D02*
D03*
X32000Y80885D02*
D03*
Y83115D02*
D03*
X12000Y80885D02*
D03*
Y83115D02*
D03*
D20*
X81500Y2500D02*
D03*
X42000Y121500D02*
D03*
X81500D02*
D03*
X2500Y2500D02*
D03*
D21*
X74540Y17080D02*
D03*
X34540Y97080D02*
D03*
X54540D02*
D03*
X14540Y77080D02*
D03*
Y97080D02*
D03*
X34540Y77080D02*
D03*
X74540D02*
D03*
Y57080D02*
D03*
X14540D02*
D03*
X34540D02*
D03*
X14540Y37080D02*
D03*
X54540Y77080D02*
D03*
Y57080D02*
D03*
X34540Y17080D02*
D03*
Y37080D02*
D03*
X54540D02*
D03*
Y17080D02*
D03*
X74540Y97080D02*
D03*
Y37080D02*
D03*
X14540Y17080D02*
D03*
D22*
X68190Y14540D02*
D03*
X28190Y94540D02*
D03*
X48190D02*
D03*
X8190Y74540D02*
D03*
Y94540D02*
D03*
X28190Y74540D02*
D03*
X68190D02*
D03*
Y54540D02*
D03*
X8190D02*
D03*
X28190D02*
D03*
X8190Y34540D02*
D03*
X48190Y74540D02*
D03*
Y54540D02*
D03*
X28190Y14540D02*
D03*
Y34540D02*
D03*
X48190D02*
D03*
Y14540D02*
D03*
X68190Y94540D02*
D03*
Y34540D02*
D03*
X8190Y14540D02*
D03*
D23*
X56650Y111750D02*
D03*
X47350D02*
D03*
X67350D02*
D03*
X76650D02*
D03*
D24*
X52000Y119250D02*
D03*
X49500D02*
D03*
X54500D02*
D03*
X49500Y104750D02*
D03*
X54500D02*
D03*
X74500D02*
D03*
X69500D02*
D03*
X74500Y119250D02*
D03*
X69500D02*
D03*
X72000D02*
D03*
D25*
X24899Y108899D02*
D03*
X22000Y109000D02*
D03*
X38000Y104000D02*
D03*
X12000Y115000D02*
D03*
X15000Y112000D02*
D03*
X17000D02*
D03*
X24000Y116000D02*
D03*
X8000Y83000D02*
D03*
X25000Y115000D02*
D03*
X8000Y63000D02*
D03*
X11000Y108000D02*
D03*
X27000Y115000D02*
D03*
X17000Y110000D02*
D03*
X18000Y116000D02*
D03*
X12000Y107000D02*
D03*
X7000Y116000D02*
D03*
X32000Y122000D02*
D03*
X9000Y116000D02*
D03*
X7000Y114000D02*
D03*
X19000Y108000D02*
D03*
X20000Y107000D02*
D03*
X12000Y101000D02*
D03*
X22000Y116000D02*
D03*
Y101000D02*
D03*
M02*
