G04*
G04 #@! TF.GenerationSoftware,Altium Limited,Altium Designer,25.3.2 (17)*
G04*
G04 Layer_Color=16711935*
%FSLAX43Y43*%
%MOMM*%
G71*
G04*
G04 #@! TF.SameCoordinates,9A78E016-BF11-4ED0-8CD3-159F53B44DCF*
G04*
G04*
G04 #@! TF.FilePolarity,Positive*
G04*
G01*
G75*
%ADD28C,0.100*%
D28*
X3140Y119300D02*
G03*
X5140Y119300I1000J0D01*
G01*
X5680D02*
G03*
X7680Y119300I1000J0D01*
G01*
X8220D02*
G03*
X10220Y119300I1000J0D01*
G01*
X10760D02*
G03*
X12760Y119300I1000J0D01*
G01*
X13300D02*
G03*
X15300Y119300I1000J0D01*
G01*
X15840D02*
G03*
X17840Y119300I1000J0D01*
G01*
X18380D02*
G03*
X20380Y119300I1000J0D01*
G01*
X20920D02*
G03*
X22920Y119300I1000J0D01*
G01*
X23460D02*
G03*
X25460Y119300I1000J0D01*
G01*
X26000D02*
G03*
X28000Y119300I1000J0D01*
G01*
X28540D02*
G03*
X30540Y119300I1000J0D01*
G01*
X31080D02*
G03*
X33080Y119300I1000J0D01*
G01*
X33620D02*
G03*
X35620Y119300I1000J0D01*
G01*
X5140Y104000D02*
G03*
X3140Y104000I-1000J0D01*
G01*
X7680D02*
G03*
X5680Y104000I-1000J0D01*
G01*
X10220D02*
G03*
X8220Y104000I-1000J0D01*
G01*
X12760D02*
G03*
X10760Y104000I-1000J0D01*
G01*
X15300D02*
G03*
X13300Y104000I-1000J0D01*
G01*
X17840D02*
G03*
X15840Y104000I-1000J0D01*
G01*
X20380D02*
G03*
X18380Y104000I-1000J0D01*
G01*
X22920D02*
G03*
X20920Y104000I-1000J0D01*
G01*
X25460D02*
G03*
X23460Y104000I-1000J0D01*
G01*
X28000D02*
G03*
X26000Y104000I-1000J0D01*
G01*
X30540D02*
G03*
X28540Y104000I-1000J0D01*
G01*
X33080D02*
G03*
X31080Y104000I-1000J0D01*
G01*
X35620D02*
G03*
X33620Y104000I-1000J0D01*
G01*
X64200Y19800D02*
X79800D01*
Y4200D02*
Y19800D01*
X64200Y4200D02*
X79800D01*
X64200D02*
Y19800D01*
X21375Y91150D02*
X22625D01*
X21375D02*
Y92850D01*
X22625D01*
Y91150D02*
Y92850D01*
X41375Y92965D02*
X42625D01*
Y91265D02*
Y92965D01*
X41375Y91265D02*
X42625D01*
X41375D02*
Y92965D01*
X71375Y101150D02*
X72625D01*
X71375D02*
Y102850D01*
X72625D01*
Y101150D02*
Y102850D01*
X51375Y101150D02*
X52625D01*
X51375D02*
Y102850D01*
X52625D01*
Y101150D02*
Y102850D01*
X2870Y104000D02*
Y119300D01*
X3140D01*
X5140D02*
X5680D01*
X7680D02*
X8220D01*
X10220D02*
X10760D01*
X12760D02*
X13300D01*
X15300D02*
X15840D01*
X17840D02*
X18380D01*
X20380D02*
X20920D01*
X22920D02*
X23460D01*
X25460D02*
X26000D01*
X28000D02*
X28540D01*
X30540D02*
X31080D01*
X33080D02*
X33620D01*
X35620D02*
X35890D01*
Y104000D02*
Y119300D01*
X2870Y104000D02*
X3140D01*
X5140D02*
X5680D01*
X7680D02*
X8220D01*
X10220D02*
X10760D01*
X12760D02*
X13300D01*
X15300D02*
X15840D01*
X17840D02*
X18380D01*
X20380D02*
X20920D01*
X22920D02*
X23460D01*
X25460D02*
X26000D01*
X28000D02*
X28540D01*
X30540D02*
X31080D01*
X33080D02*
X33620D01*
X35620D02*
X35890D01*
X72625Y21150D02*
Y22850D01*
X71375D02*
X72625D01*
X71375Y21150D02*
Y22850D01*
Y21150D02*
X72625D01*
X52625D02*
Y22850D01*
X51375D02*
X52625D01*
X51375Y21150D02*
Y22850D01*
Y21150D02*
X52625D01*
X32625D02*
Y22850D01*
X31375D02*
X32625D01*
X31375Y21150D02*
Y22850D01*
Y21150D02*
X32625D01*
X12625D02*
Y22850D01*
X11375D02*
X12625D01*
X11375Y21150D02*
Y22850D01*
Y21150D02*
X12625D01*
X72625Y41150D02*
Y42850D01*
X71375D02*
X72625D01*
X71375Y41150D02*
Y42850D01*
Y41150D02*
X72625D01*
X52625D02*
Y42850D01*
X51375D02*
X52625D01*
X51375Y41150D02*
Y42850D01*
Y41150D02*
X52625D01*
X32625D02*
Y42850D01*
X31375D02*
X32625D01*
X31375Y41150D02*
Y42850D01*
Y41150D02*
X32625D01*
X12625D02*
Y42850D01*
X11375D02*
X12625D01*
X11375Y41150D02*
Y42850D01*
Y41150D02*
X12625D01*
X72625Y61150D02*
Y62850D01*
X71375D02*
X72625D01*
X71375Y61150D02*
Y62850D01*
Y61150D02*
X72625D01*
X52625D02*
Y62850D01*
X51375D02*
X52625D01*
X51375Y61150D02*
Y62850D01*
Y61150D02*
X52625D01*
X32625Y61035D02*
Y62735D01*
X31375D02*
X32625D01*
X31375Y61035D02*
Y62735D01*
Y61035D02*
X32625D01*
X12625Y61150D02*
Y62850D01*
X11375D02*
X12625D01*
X11375Y61150D02*
Y62850D01*
Y61150D02*
X12625D01*
X72625Y81150D02*
Y82850D01*
X71375D02*
X72625D01*
X71375Y81150D02*
Y82850D01*
Y81150D02*
X72625D01*
X52625D02*
Y82850D01*
X51375D02*
X52625D01*
X51375Y81150D02*
Y82850D01*
Y81150D02*
X52625D01*
X32625D02*
Y82850D01*
X31375D02*
X32625D01*
X31375Y81150D02*
Y82850D01*
Y81150D02*
X32625D01*
X12625D02*
Y82850D01*
X11375D02*
X12625D01*
X11375Y81150D02*
Y82850D01*
Y81150D02*
X12625D01*
X24200Y84200D02*
Y99800D01*
Y84200D02*
X39800D01*
Y99800D01*
X24200D02*
X39800D01*
X44200Y84200D02*
Y99800D01*
Y84200D02*
X59800D01*
Y99800D01*
X44200D02*
X59800D01*
X4200Y64200D02*
Y79800D01*
Y64200D02*
X19800D01*
Y79800D01*
X4200D02*
X19800D01*
X4200Y84200D02*
Y99800D01*
Y84200D02*
X19800D01*
Y99800D01*
X4200D02*
X19800D01*
X24200Y64200D02*
Y79800D01*
Y64200D02*
X39800D01*
Y79800D01*
X24200D02*
X39800D01*
X64200Y64200D02*
Y79800D01*
Y64200D02*
X79800D01*
Y79800D01*
X64200D02*
X79800D01*
X64200Y44200D02*
Y59800D01*
Y44200D02*
X79800D01*
Y59800D01*
X64200D02*
X79800D01*
X4200Y44200D02*
Y59800D01*
Y44200D02*
X19800D01*
Y59800D01*
X4200D02*
X19800D01*
X24200Y44200D02*
Y59800D01*
Y44200D02*
X39800D01*
Y59800D01*
X24200D02*
X39800D01*
X4200Y24200D02*
Y39800D01*
Y24200D02*
X19800D01*
Y39800D01*
X4200D02*
X19800D01*
X44200Y64200D02*
Y79800D01*
Y64200D02*
X59800D01*
Y79800D01*
X44200D02*
X59800D01*
X44200Y44200D02*
Y59800D01*
Y44200D02*
X59800D01*
Y59800D01*
X44200D02*
X59800D01*
X24200Y4200D02*
Y19800D01*
Y4200D02*
X39800D01*
Y19800D01*
X24200D02*
X39800D01*
X24200Y24200D02*
Y39800D01*
Y24200D02*
X39800D01*
Y39800D01*
X24200D02*
X39800D01*
X44200Y24200D02*
Y39800D01*
Y24200D02*
X59800D01*
Y39800D01*
X44200D02*
X59800D01*
X44200Y4200D02*
Y19800D01*
Y4200D02*
X59800D01*
Y19800D01*
X44200D02*
X59800D01*
X64200Y84200D02*
Y99800D01*
Y84200D02*
X79800D01*
Y99800D01*
X64200D02*
X79800D01*
X64200Y24200D02*
Y39800D01*
Y24200D02*
X79800D01*
Y39800D01*
X64200D02*
X79800D01*
X4200Y4200D02*
Y19800D01*
Y4200D02*
X19800D01*
Y19800D01*
X4200D02*
X19800D01*
M02*
