G04*
G04 #@! TF.GenerationSoftware,Altium Limited,Altium Designer,25.3.2 (17)*
G04*
G04 Layer_Color=255*
%FSLAX43Y43*%
%MOMM*%
G71*
G04*
G04 #@! TF.SameCoordinates,9A78E016-BF11-4ED0-8CD3-159F53B44DCF*
G04*
G04*
G04 #@! TF.FilePolarity,Positive*
G04*
G01*
G75*
%ADD13R,0.830X0.630*%
%ADD20C,3.000*%
%ADD21C,2.000*%
%ADD22R,2.000X2.000*%
G04:AMPARAMS|DCode=23|XSize=3.9mm|YSize=2.7mm|CornerRadius=0.675mm|HoleSize=0mm|Usage=FLASHONLY|Rotation=90.000|XOffset=0mm|YOffset=0mm|HoleType=Round|Shape=RoundedRectangle|*
%AMROUNDEDRECTD23*
21,1,3.900,1.350,0,0,90.0*
21,1,2.550,2.700,0,0,90.0*
1,1,1.350,0.675,1.275*
1,1,1.350,0.675,-1.275*
1,1,1.350,-0.675,-1.275*
1,1,1.350,-0.675,1.275*
%
%ADD23ROUNDEDRECTD23*%
%ADD24C,1.500*%
D13*
X22000Y93115D02*
D03*
Y90885D02*
D03*
X42000Y91000D02*
D03*
Y93230D02*
D03*
X72000Y103115D02*
D03*
Y100885D02*
D03*
X52000Y103115D02*
D03*
Y100885D02*
D03*
X72000Y20885D02*
D03*
Y23115D02*
D03*
X52000Y20885D02*
D03*
Y23115D02*
D03*
X32000Y20885D02*
D03*
Y23115D02*
D03*
X12000Y20885D02*
D03*
Y23115D02*
D03*
X72000Y40885D02*
D03*
Y43115D02*
D03*
X52000Y40885D02*
D03*
Y43115D02*
D03*
X32000Y40885D02*
D03*
Y43115D02*
D03*
X12000Y40885D02*
D03*
Y43115D02*
D03*
X72000Y60885D02*
D03*
Y63115D02*
D03*
X52000Y60885D02*
D03*
Y63115D02*
D03*
X32000Y60770D02*
D03*
Y63000D02*
D03*
X12000Y60885D02*
D03*
Y63115D02*
D03*
X72000Y80885D02*
D03*
Y83115D02*
D03*
X52000Y80885D02*
D03*
Y83115D02*
D03*
X32000Y80885D02*
D03*
Y83115D02*
D03*
X12000Y80885D02*
D03*
Y83115D02*
D03*
D20*
X81500Y2500D02*
D03*
X42000Y121500D02*
D03*
X81500D02*
D03*
X2500Y2500D02*
D03*
D21*
X74540Y17080D02*
D03*
X34540Y97080D02*
D03*
X54540D02*
D03*
X14540Y77080D02*
D03*
Y97080D02*
D03*
X34540Y77080D02*
D03*
X74540D02*
D03*
Y57080D02*
D03*
X14540D02*
D03*
X34540D02*
D03*
X14540Y37080D02*
D03*
X54540Y77080D02*
D03*
Y57080D02*
D03*
X34540Y17080D02*
D03*
Y37080D02*
D03*
X54540D02*
D03*
Y17080D02*
D03*
X74540Y97080D02*
D03*
Y37080D02*
D03*
X14540Y17080D02*
D03*
D22*
X68190Y14540D02*
D03*
X28190Y94540D02*
D03*
X48190D02*
D03*
X8190Y74540D02*
D03*
Y94540D02*
D03*
X28190Y74540D02*
D03*
X68190D02*
D03*
Y54540D02*
D03*
X8190D02*
D03*
X28190D02*
D03*
X8190Y34540D02*
D03*
X48190Y74540D02*
D03*
Y54540D02*
D03*
X28190Y14540D02*
D03*
Y34540D02*
D03*
X48190D02*
D03*
Y14540D02*
D03*
X68190Y94540D02*
D03*
Y34540D02*
D03*
X8190Y14540D02*
D03*
D23*
X56650Y111750D02*
D03*
X47350D02*
D03*
X67350D02*
D03*
X76650D02*
D03*
D24*
X52000Y119250D02*
D03*
X49500D02*
D03*
X54500D02*
D03*
X49500Y104750D02*
D03*
X54500D02*
D03*
X74500D02*
D03*
X69500D02*
D03*
X74500Y119250D02*
D03*
X69500D02*
D03*
X72000D02*
D03*
M02*
