G04*
G04 #@! TF.GenerationSoftware,Altium Limited,Altium Designer,25.3.2 (17)*
G04*
G04 Layer_Color=8421504*
%FSLAX43Y43*%
%MOMM*%
G71*
G04*
G04 #@! TF.SameCoordinates,9A78E016-BF11-4ED0-8CD3-159F53B44DCF*
G04*
G04*
G04 #@! TF.FilePolarity,Positive*
G04*
G01*
G75*
%ADD13R,0.830X0.630*%
D13*
X22000Y93115D02*
D03*
Y90885D02*
D03*
X42000Y91000D02*
D03*
Y93230D02*
D03*
X72000Y103115D02*
D03*
Y100885D02*
D03*
X52000Y103115D02*
D03*
Y100885D02*
D03*
X72000Y20885D02*
D03*
Y23115D02*
D03*
X52000Y20885D02*
D03*
Y23115D02*
D03*
X32000Y20885D02*
D03*
Y23115D02*
D03*
X12000Y20885D02*
D03*
Y23115D02*
D03*
X72000Y40885D02*
D03*
Y43115D02*
D03*
X52000Y40885D02*
D03*
Y43115D02*
D03*
X32000Y40885D02*
D03*
Y43115D02*
D03*
X12000Y40885D02*
D03*
Y43115D02*
D03*
X72000Y60885D02*
D03*
Y63115D02*
D03*
X52000Y60885D02*
D03*
Y63115D02*
D03*
X32000Y60770D02*
D03*
Y63000D02*
D03*
X12000Y60885D02*
D03*
Y63115D02*
D03*
X72000Y80885D02*
D03*
Y83115D02*
D03*
X52000Y80885D02*
D03*
Y83115D02*
D03*
X32000Y80885D02*
D03*
Y83115D02*
D03*
X12000Y80885D02*
D03*
Y83115D02*
D03*
M02*
