G04*
G04 #@! TF.GenerationSoftware,Altium Limited,Altium Designer,25.3.2 (17)*
G04*
G04 Layer_Color=255*
%FSLAX43Y43*%
%MOMM*%
G71*
G04*
G04 #@! TF.SameCoordinates,9A78E016-BF11-4ED0-8CD3-159F53B44DCF*
G04*
G04*
G04 #@! TF.FilePolarity,Positive*
G04*
G01*
G75*
%ADD20C,3.000*%
%ADD21C,2.000*%
%ADD22R,2.000X2.000*%
G04:AMPARAMS|DCode=23|XSize=3.9mm|YSize=2.7mm|CornerRadius=0.675mm|HoleSize=0mm|Usage=FLASHONLY|Rotation=90.000|XOffset=0mm|YOffset=0mm|HoleType=Round|Shape=RoundedRectangle|*
%AMROUNDEDRECTD23*
21,1,3.900,1.350,0,0,90.0*
21,1,2.550,2.700,0,0,90.0*
1,1,1.350,0.675,1.275*
1,1,1.350,0.675,-1.275*
1,1,1.350,-0.675,-1.275*
1,1,1.350,-0.675,1.275*
%
%ADD23ROUNDEDRECTD23*%
%ADD24C,1.500*%
%ADD26R,2.000X3.500*%
D20*
X81500Y2500D02*
D03*
X42000Y121500D02*
D03*
X81500D02*
D03*
X2500Y2500D02*
D03*
D21*
X74540Y17080D02*
D03*
X34540Y97080D02*
D03*
X54540D02*
D03*
X14540Y77080D02*
D03*
Y97080D02*
D03*
X34540Y77080D02*
D03*
X74540D02*
D03*
Y57080D02*
D03*
X14540D02*
D03*
X34540D02*
D03*
X14540Y37080D02*
D03*
X54540Y77080D02*
D03*
Y57080D02*
D03*
X34540Y17080D02*
D03*
Y37080D02*
D03*
X54540D02*
D03*
Y17080D02*
D03*
X74540Y97080D02*
D03*
Y37080D02*
D03*
X14540Y17080D02*
D03*
D22*
X68190Y14540D02*
D03*
X28190Y94540D02*
D03*
X48190D02*
D03*
X8190Y74540D02*
D03*
Y94540D02*
D03*
X28190Y74540D02*
D03*
X68190D02*
D03*
Y54540D02*
D03*
X8190D02*
D03*
X28190D02*
D03*
X8190Y34540D02*
D03*
X48190Y74540D02*
D03*
Y54540D02*
D03*
X28190Y14540D02*
D03*
Y34540D02*
D03*
X48190D02*
D03*
Y14540D02*
D03*
X68190Y94540D02*
D03*
Y34540D02*
D03*
X8190Y14540D02*
D03*
D23*
X56650Y111750D02*
D03*
X47350D02*
D03*
X67350D02*
D03*
X76650D02*
D03*
D24*
X52000Y119250D02*
D03*
X49500D02*
D03*
X54500D02*
D03*
X49500Y104750D02*
D03*
X54500D02*
D03*
X74500D02*
D03*
X69500D02*
D03*
X74500Y119250D02*
D03*
X69500D02*
D03*
X72000D02*
D03*
D26*
X4140Y119300D02*
D03*
X6680D02*
D03*
X9220D02*
D03*
X11760D02*
D03*
X14300D02*
D03*
X16840D02*
D03*
X19380D02*
D03*
X21920D02*
D03*
X24460D02*
D03*
X27000D02*
D03*
X29540D02*
D03*
X32080D02*
D03*
X34620D02*
D03*
X4140Y104000D02*
D03*
X6680D02*
D03*
X9220D02*
D03*
X11760D02*
D03*
X14300D02*
D03*
X16840D02*
D03*
X19380D02*
D03*
X21920D02*
D03*
X24460D02*
D03*
X27000D02*
D03*
X29540D02*
D03*
X32080D02*
D03*
X34620D02*
D03*
M02*
